<svg width="20" height="18" viewBox="0 0 20 18" fill="none" xmlns="http://www.w3.org/2000/svg">
<path d="M17.7299 9.84619C17.9492 9.65816 18.0589 9.56414 18.0991 9.45227C18.1344 9.35407 18.1344 9.24666 18.0991 9.14847C18.0589 9.03659 17.9492 8.94258 17.7299 8.75454L10.118 2.23005C9.74035 1.90637 9.55153 1.74454 9.39168 1.74057C9.25275 1.73713 9.12005 1.79816 9.03225 1.90588C8.93123 2.02984 8.93123 2.27851 8.93123 2.77587V6.63565C7.01298 6.97124 5.25734 7.94324 3.95265 9.40269C2.53025 10.9938 1.74343 13.0529 1.74232 15.1871V15.7371C2.68528 14.6012 3.86261 13.6825 5.19368 13.0439C6.36721 12.4809 7.6358 12.1475 8.93123 12.0596V15.8249C8.93123 16.3222 8.93123 16.5709 9.03225 16.6949C9.12005 16.8026 9.25275 16.8636 9.39168 16.8602C9.55153 16.8562 9.74035 16.6944 10.118 16.3707L17.7299 9.84619Z" stroke="#98A2B3" stroke-width="1.79723" stroke-linecap="round" stroke-linejoin="round"/>
</svg>
